<svg width="1020" height="300">
<style type="text/css">
.arrow { fill : none; stroke : black; stroke-width : 5px; }

.modelData { fill : black; stroke : none; }
.modelEdge { fill : none; stroke : black; stroke-width : 4px; shape-rendering: crispEdges; }
.modelInternal { fill : white; stroke : none; }
.modeLine { fill : none; stroke : black; stroke-width : 2px; }

.tableEdge { fill : none; stroke : black; stroke-width : 4px; shape-rendering: crispEdges; }
.tableInternal { fill : white; stroke : none; }
.tableLine { fill : none; stroke : gray; stroke-width : 1px; shape-rendering: crispEdges; }
</style>
<defs><marker id="arrowhead" refX="0" refY="2" markerWidth="6" markerHeight="4" orient="auto"><path d="M0,0V4L6,2Z"></path></marker></defs><g class="rawData" transform="translate(10, 100)"><rect class="tableEdge" x="0" y="0" width="100" height="150"></rect><rect class="tableInternal" x="0" y="0" width="100" height="150"></rect><text text-anchor="middle" x="50" y="-8.5">Processed Data</text><line class="tableLine" x1="0" y1="10" x2="100" y2="10"></line><line class="tableLine" x1="0" y1="20" x2="100" y2="20"></line><line class="tableLine" x1="0" y1="30" x2="100" y2="30"></line><line class="tableLine" x1="0" y1="40" x2="100" y2="40"></line><line class="tableLine" x1="0" y1="50" x2="100" y2="50"></line><line class="tableLine" x1="0" y1="60" x2="100" y2="60"></line><line class="tableLine" x1="0" y1="70" x2="100" y2="70"></line><line class="tableLine" x1="0" y1="80" x2="100" y2="80"></line><line class="tableLine" x1="0" y1="90" x2="100" y2="90"></line><line class="tableLine" x1="0" y1="100" x2="100" y2="100"></line><line class="tableLine" x1="0" y1="110" x2="100" y2="110"></line><line class="tableLine" x1="0" y1="120" x2="100" y2="120"></line><line class="tableLine" x1="0" y1="130" x2="100" y2="130"></line><line class="tableLine" x1="0" y1="140" x2="100" y2="140"></line><line class="tableLine" x1="20" y1="0" x2="20" y2="150"></line><line class="tableLine" x1="40" y1="0" x2="40" y2="150"></line><line class="tableLine" x1="60" y1="0" x2="60" y2="150"></line><line class="tableLine" x1="80" y1="0" x2="80" y2="150"></line></g><g class="processedData" transform="translate(210, 85)"><rect class="tableEdge" x="0" y="0" width="100" height="100"></rect><rect class="tableInternal" x="0" y="0" width="100" height="100"></rect><text text-anchor="middle" x="50" y="-8.5">Training Data</text><line class="tableLine" x1="0" y1="10" x2="100" y2="10"></line><line class="tableLine" x1="0" y1="20" x2="100" y2="20"></line><line class="tableLine" x1="0" y1="30" x2="100" y2="30"></line><line class="tableLine" x1="0" y1="40" x2="100" y2="40"></line><line class="tableLine" x1="0" y1="50" x2="100" y2="50"></line><line class="tableLine" x1="0" y1="60" x2="100" y2="60"></line><line class="tableLine" x1="0" y1="70" x2="100" y2="70"></line><line class="tableLine" x1="0" y1="80" x2="100" y2="80"></line><line class="tableLine" x1="0" y1="90" x2="100" y2="90"></line><line class="tableLine" x1="20" y1="0" x2="20" y2="100"></line><line class="tableLine" x1="40" y1="0" x2="40" y2="100"></line><line class="tableLine" x1="60" y1="0" x2="60" y2="100"></line><line class="tableLine" x1="80" y1="0" x2="80" y2="100"></line></g><g class="unusedData" transform="translate(210, 225)"><rect class="tableEdge" x="0" y="0" width="100" height="50"></rect><rect class="tableInternal" x="0" y="0" width="100" height="50"></rect><text text-anchor="middle" x="50" y="-8.5">Unused Data</text><line class="tableLine" x1="0" y1="10" x2="100" y2="10"></line><line class="tableLine" x1="0" y1="20" x2="100" y2="20"></line><line class="tableLine" x1="0" y1="30" x2="100" y2="30"></line><line class="tableLine" x1="0" y1="40" x2="100" y2="40"></line><line class="tableLine" x1="20" y1="0" x2="20" y2="50"></line><line class="tableLine" x1="40" y1="0" x2="40" y2="50"></line><line class="tableLine" x1="60" y1="0" x2="60" y2="50"></line><line class="tableLine" x1="80" y1="0" x2="80" y2="50"></line></g><path class="arrow" d="M110,175C145,175,145,135,180,135" marker-end="url(#arrowhead)"></path><path class="arrow" d="M110,175C145,175,145,250,180,250" marker-end="url(#arrowhead)"></path><g class="initialModel" transform="translate(410, 85)"><rect class="modelEdge" x="0" y="0" width="100" height="100"></rect><rect class="modelInternal" x="0" y="0" width="100" height="100"></rect><text text-anchor="middle" x="50" y="-8.5">Initial Model</text><circle class="modelData" cx="5" cy="67" r="3"></circle><circle class="modelData" cx="10" cy="33" r="3"></circle><circle class="modelData" cx="15" cy="42" r="3"></circle><circle class="modelData" cx="20" cy="86" r="3"></circle><circle class="modelData" cx="25" cy="76" r="3"></circle><circle class="modelData" cx="30" cy="13" r="3"></circle><circle class="modelData" cx="35" cy="61" r="3"></circle><circle class="modelData" cx="40" cy="30" r="3"></circle><circle class="modelData" cx="45" cy="52" r="3"></circle><circle class="modelData" cx="50" cy="71" r="3"></circle><circle class="modelData" cx="55" cy="7" r="3"></circle><circle class="modelData" cx="60" cy="33" r="3"></circle><circle class="modelData" cx="65" cy="82" r="3"></circle><circle class="modelData" cx="70" cy="46" r="3"></circle><circle class="modelData" cx="75" cy="76" r="3"></circle><circle class="modelData" cx="80" cy="13" r="3"></circle><circle class="modelData" cx="85" cy="61" r="3"></circle><circle class="modelData" cx="90" cy="30" r="3"></circle><circle class="modelData" cx="95" cy="52" r="3"></circle><path class="modeLine" d="M2,6.666666666666667C20,50,80,50,99,93.33333333333333"></path></g><g class="processedData" transform="translate(710, 45)"><rect class="tableEdge" x="0" y="0" width="100" height="80"></rect><rect class="tableInternal" x="0" y="0" width="100" height="80"></rect><text text-anchor="middle" x="50" y="-8.5">Correctly Classified</text><line class="tableLine" x1="0" y1="10" x2="100" y2="10"></line><line class="tableLine" x1="0" y1="20" x2="100" y2="20"></line><line class="tableLine" x1="0" y1="30" x2="100" y2="30"></line><line class="tableLine" x1="0" y1="40" x2="100" y2="40"></line><line class="tableLine" x1="0" y1="50" x2="100" y2="50"></line><line class="tableLine" x1="0" y1="60" x2="100" y2="60"></line><line class="tableLine" x1="0" y1="70" x2="100" y2="70"></line><line class="tableLine" x1="20" y1="0" x2="20" y2="80"></line><line class="tableLine" x1="40" y1="0" x2="40" y2="80"></line><line class="tableLine" x1="60" y1="0" x2="60" y2="80"></line><line class="tableLine" x1="80" y1="0" x2="80" y2="80"></line></g><g class="unusedData" transform="translate(710, 165)"><rect class="tableEdge" x="0" y="0" width="100" height="20"></rect><rect class="tableInternal" x="0" y="0" width="100" height="20"></rect><text text-anchor="middle" x="50" y="-8.5">Misclassified</text><line class="tableLine" x1="0" y1="10" x2="100" y2="10"></line><line class="tableLine" x1="20" y1="0" x2="20" y2="20"></line><line class="tableLine" x1="40" y1="0" x2="40" y2="20"></line><line class="tableLine" x1="60" y1="0" x2="60" y2="20"></line><line class="tableLine" x1="80" y1="0" x2="80" y2="20"></line></g><path class="arrow" d="M310,135C345,135,345,135,380,135" marker-end="url(#arrowhead)"></path><path class="arrow" d="M610,135C645,135,645,85,680,85" marker-end="url(#arrowhead)"></path><path class="arrow" d="M510,135h100"></path><path class="arrow" d="M610,135C645,135,645,175,680,175" marker-end="url(#arrowhead)"></path><path class="arrow" d="M310,135Q360,135,360,175T410,215h100Q560,215,560,175T610,135"></path><g class="initialModel" transform="translate(910, 35)"><rect class="modelEdge" x="0" y="0" width="100" height="100"></rect><rect class="modelInternal" x="0" y="0" width="100" height="100"></rect><text text-anchor="middle" x="50" y="-8.5">Final Model</text><circle class="modelData" cx="5" cy="67" r="3"></circle><circle class="modelData" cx="10" cy="33" r="3"></circle><circle class="modelData" cx="15" cy="42" r="3"></circle><circle class="modelData" cx="20" cy="86" r="3"></circle><circle class="modelData" cx="25" cy="76" r="3"></circle><circle class="modelData" cx="30" cy="13" r="3"></circle><circle class="modelData" cx="35" cy="61" r="3"></circle><circle class="modelData" cx="40" cy="30" r="3"></circle><circle class="modelData" cx="45" cy="52" r="3"></circle><circle class="modelData" cx="50" cy="71" r="3"></circle><circle class="modelData" cx="55" cy="7" r="3"></circle><circle class="modelData" cx="60" cy="33" r="3"></circle><circle class="modelData" cx="65" cy="82" r="3"></circle><circle class="modelData" cx="70" cy="46" r="3"></circle><circle class="modelData" cx="75" cy="76" r="3"></circle><circle class="modelData" cx="80" cy="13" r="3"></circle><circle class="modelData" cx="85" cy="61" r="3"></circle><circle class="modelData" cx="90" cy="30" r="3"></circle><circle class="modelData" cx="95" cy="52" r="3"></circle><path class="modeLine" d="M2,6.666666666666667C20,50,80,50,99,93.33333333333333"></path></g><path class="arrow" d="M810,85C845,85,845,85,880,85" marker-end="url(#arrowhead)"></path></svg>